<?xml version="1.0" encoding="utf-8"?>
<!-- Generator: Adobe Illustrator 24.0.2, SVG Export Plug-In . SVG Version: 6.00 Build 0)  -->
<svg version="1.1" id="Capa_1" xmlns="http://www.w3.org/2000/svg" xmlns:xlink="http://www.w3.org/1999/xlink" x="0px" y="0px"
	 viewBox="0 0 720 270" style="enable-background:new 0 0 720 270;" xml:space="preserve">
<style type="text/css">
	.ELightBg{fill:#F8FAFB;}
	.EGreyBg{fill:#212121;}
	.EGreenBg{fill:#00FF7F;}
	.ETranspBg{fill:none;}
</style>
<g>
	<rect x="-1320" y="-270" class="ELightBg" width="720" height="270"/>
	<g>
		<g>
			<path class="EGreyBg" d="M-1050-150.1v8.6h29.7v19.6h-29.7v7.9h34v20.4h-58v-76.9h58v20.4H-1050z"/>
			<path class="EGreyBg" d="M-967.4-175.1h23.1v81.5h-23.1v-6.5c-4.4,5.1-10.2,7.7-17.4,7.7c-7.7,0-13.9-2.9-18.5-8.6
				c-4.6-5.7-6.9-13.2-6.9-22.5c0-9.2,2.3-16.6,6.9-22.3c4.6-5.7,10.8-8.5,18.5-8.5c7.2,0,13,2.5,17.4,7.6V-175.1z M-977-113.1
				c3.2,0,5.7-0.9,7.5-2.7c1.8-1.8,2.6-4.3,2.6-7.4c0-3.3-0.9-5.8-2.6-7.7c-1.8-1.8-4.2-2.7-7.5-2.7c-3.1,0-5.5,0.9-7.3,2.8
				c-1.8,1.9-2.7,4.4-2.7,7.6c0,3,0.9,5.4,2.7,7.3C-982.5-114.1-980.1-113.1-977-113.1z"/>
			<path class="EGreyBg" d="M-910-168.8c0,3.3-1.2,6.1-3.6,8.4c-2.4,2.3-5.3,3.5-8.7,3.5c-3.4,0-6.4-1.2-8.9-3.5
				c-2.5-2.3-3.7-5.1-3.7-8.4c0-3.2,1.2-5.9,3.7-8.2c2.5-2.3,5.4-3.5,8.9-3.5c3.4,0,6.3,1.1,8.7,3.4C-911.2-174.8-910-172-910-168.8
				z M-933.9-93.6v-59.6h23.1v59.6H-933.9z"/>
			<path class="EGreyBg" d="M-904.1-123.2c0-8.5,3.3-15.8,9.8-21.9c6.5-6.1,14.3-9.2,23.2-9.2c6.9,0,12.9,1.7,18.2,5.1
				c5.3,3.4,9,8,11.1,13.9l-19.6,7.9c-1.3-2.2-2.6-3.8-4-4.8c-1.4-1-3.3-1.5-5.6-1.5c-2.9,0-5.3,1-7.2,3c-1.9,2-2.9,4.5-2.9,7.5
				c0,3,0.9,5.5,2.8,7.4c1.9,1.9,4.3,2.8,7.3,2.8c2.5,0,4.5-0.5,6-1.4c1.5-0.9,2.8-2.4,3.9-4.5l19.6,7.9c-2.3,6.1-6,10.7-11.1,13.9
				c-5.1,3.2-11.3,4.7-18.5,4.7c-9.3,0-17.2-2.9-23.5-8.7C-900.9-106.9-904.1-114.2-904.1-123.2z"/>
			<path class="EGreyBg" d="M-806.6-92.4c-9.3,0-17.1-3-23.5-9.1c-6.3-6.1-9.5-13.4-9.5-21.9c0-8.5,3.2-15.7,9.5-21.8
				c6.3-6.1,14.2-9.1,23.5-9.1c9.2,0,17.1,3,23.4,9.1c6.4,6.1,9.6,13.3,9.6,21.8c0,8.5-3.2,15.8-9.6,21.9
				C-789.5-95.5-797.4-92.4-806.6-92.4z M-799.4-130.9c-1.8-2-4.2-2.9-7.3-2.9c-3.1,0-5.5,1-7.3,2.9c-1.8,2-2.6,4.4-2.6,7.5
				c0,3,0.9,5.5,2.6,7.5c1.8,2,4.2,3,7.3,3c3.1,0,5.5-1,7.3-3c1.8-2,2.6-4.5,2.6-7.5C-796.7-126.4-797.6-128.9-799.4-130.9z"/>
			<path class="EGreyBg" d="M-686.1-154.2c6.4,0,11.5,2.3,15.4,6.9c3.9,4.6,5.9,11,5.9,19.2v34.6h-23.2v-31.8c0-2.5-0.8-4.4-2.3-5.9
				c-1.5-1.5-3.5-2.3-6-2.3c-2.2,0-4,0.8-5.6,2.3c-1.5,1.5-2.3,3.5-2.3,5.9v31.8h-23.2v-31.8c0-2.5-0.8-4.4-2.3-5.9
				c-1.5-1.5-3.5-2.3-6-2.3c-2.2,0-4,0.8-5.6,2.3c-1.5,1.5-2.3,3.5-2.3,5.9v31.8h-23.1v-59.6h23.1v6.9c5.6-5.3,11.6-8,18.1-8
				c8.2,0,14.1,3.5,17.9,10.4C-700.9-150.7-693.8-154.2-686.1-154.2z"/>
		</g>
	</g>
	<g>
		<g>
			<g>
				<path class="EGreenBg" d="M-1230-210h90c16.6,0,30,13.4,30,30v90c0,16.6-13.4,30-30,30h-90c-16.6,0-30-13.4-30-30v-90
					C-1260-196.6-1246.6-210-1230-210z"/>
			</g>
		</g>
		<g>
			<path class="EGreyBg" d="M-1147.5-92.1v-96.4h-75v96.4h-10.7v10.7h96.4v-10.7H-1147.5z M-1168.9-177.9h10.7v10.7h-10.7V-177.9z
				 M-1168.9-156.4h10.7v10.7h-10.7V-156.4z M-1168.9-135h10.7v10.7h-10.7V-135z M-1190.4-177.9h10.7v10.7h-10.7V-177.9z
				 M-1190.4-156.4h10.7v10.7h-10.7V-156.4z M-1190.4-135h10.7v10.7h-10.7V-135z M-1211.8-177.9h10.7v10.7h-10.7V-177.9z
				 M-1211.8-156.4h10.7v10.7h-10.7V-156.4z M-1211.8-135h10.7v10.7h-10.7V-135z M-1195.7-92.1v-10.7c0-5.9,4.8-10.7,10.7-10.7
				s10.7,4.8,10.7,10.7v10.7H-1195.7z"/>
			<rect x="-1211.8" y="-177.9" class="EGreenBg" width="10.7" height="10.7"/>
			<rect x="-1190.4" y="-177.9" class="EGreenBg" width="10.7" height="10.7"/>
			<rect x="-1168.9" y="-177.9" class="EGreenBg" width="10.7" height="10.7"/>
			<rect x="-1211.8" y="-156.4" class="EGreenBg" width="10.7" height="10.7"/>
			<rect x="-1190.4" y="-156.4" class="EGreenBg" width="10.7" height="10.7"/>
			<rect x="-1168.9" y="-156.4" class="EGreenBg" width="10.7" height="10.7"/>
			<rect x="-1211.8" y="-135" class="EGreenBg" width="10.7" height="10.7"/>
			<rect x="-1190.4" y="-135" class="EGreenBg" width="10.7" height="10.7"/>
			<rect x="-1168.9" y="-135" class="EGreenBg" width="10.7" height="10.7"/>
			<path class="EGreenBg" d="M-1185-113.6c-5.9,0-10.7,4.8-10.7,10.7v10.7h21.4v-10.7C-1174.3-108.8-1179.1-113.6-1185-113.6z"/>
		</g>
	</g>
</g>
<g>
	<rect y="-330" class="ETranspBg" width="720" height="270"/>
	<g>
		<g>
			<path class="EGreyBg" d="M270-210.1v8.6h29.7v19.6H270v7.9h34v20.4h-58v-76.9h58v20.4H270z"/>
			<path class="EGreyBg" d="M352.6-235.1h23.1v81.5h-23.1v-6.5c-4.4,5.1-10.2,7.7-17.4,7.7c-7.7,0-13.9-2.9-18.5-8.6
				c-4.6-5.7-6.9-13.2-6.9-22.5c0-9.2,2.3-16.6,6.9-22.3c4.6-5.7,10.8-8.5,18.5-8.5c7.2,0,13,2.5,17.4,7.6V-235.1z M343-173.1
				c3.2,0,5.7-0.9,7.5-2.7c1.8-1.8,2.6-4.3,2.6-7.4c0-3.3-0.9-5.8-2.6-7.7c-1.8-1.8-4.2-2.7-7.5-2.7c-3.1,0-5.5,0.9-7.3,2.8
				c-1.8,1.9-2.7,4.4-2.7,7.6c0,3,0.9,5.4,2.7,7.3C337.5-174.1,339.9-173.1,343-173.1z"/>
			<path class="EGreyBg" d="M410-228.8c0,3.3-1.2,6.1-3.6,8.4c-2.4,2.3-5.3,3.5-8.7,3.5c-3.4,0-6.4-1.2-8.9-3.5
				c-2.5-2.3-3.7-5.1-3.7-8.4c0-3.2,1.2-5.9,3.7-8.2c2.5-2.3,5.4-3.5,8.9-3.5c3.4,0,6.3,1.1,8.7,3.4C408.8-234.8,410-232,410-228.8z
				 M386.1-153.6v-59.6h23.1v59.6H386.1z"/>
			<path class="EGreyBg" d="M415.9-183.2c0-8.5,3.3-15.8,9.8-21.9c6.5-6.1,14.3-9.2,23.2-9.2c6.9,0,12.9,1.7,18.2,5.1
				c5.3,3.4,9,8,11.1,13.9l-19.6,7.9c-1.3-2.2-2.6-3.8-4-4.8c-1.4-1-3.3-1.5-5.6-1.5c-2.9,0-5.3,1-7.2,3c-1.9,2-2.9,4.5-2.9,7.5
				c0,3,0.9,5.5,2.8,7.4c1.9,1.9,4.3,2.8,7.3,2.8c2.5,0,4.5-0.5,6-1.4c1.5-0.9,2.8-2.4,3.9-4.5l19.6,7.9c-2.3,6.1-6,10.7-11.1,13.9
				c-5.1,3.2-11.3,4.7-18.5,4.7c-9.3,0-17.2-2.9-23.5-8.7C419.1-166.9,415.9-174.2,415.9-183.2z"/>
			<path class="EGreyBg" d="M513.4-152.4c-9.3,0-17.1-3-23.5-9.1c-6.3-6.1-9.5-13.4-9.5-21.9c0-8.5,3.2-15.7,9.5-21.8
				c6.3-6.1,14.2-9.1,23.5-9.1c9.2,0,17.1,3,23.4,9.1c6.4,6.1,9.6,13.3,9.6,21.8c0,8.5-3.2,15.8-9.6,21.9
				C530.5-155.5,522.6-152.4,513.4-152.4z M520.6-190.9c-1.8-2-4.2-2.9-7.3-2.9c-3.1,0-5.5,1-7.3,2.9c-1.8,2-2.6,4.4-2.6,7.5
				c0,3,0.9,5.5,2.6,7.5c1.8,2,4.2,3,7.3,3c3.1,0,5.5-1,7.3-3c1.8-2,2.6-4.5,2.6-7.5C523.3-186.4,522.4-188.9,520.6-190.9z"/>
			<path class="EGreyBg" d="M633.9-214.2c6.4,0,11.5,2.3,15.4,6.9c3.9,4.6,5.9,11,5.9,19.2v34.6h-23.2v-31.8c0-2.5-0.8-4.4-2.3-5.9
				c-1.5-1.5-3.5-2.3-6-2.3c-2.2,0-4,0.8-5.6,2.3c-1.5,1.5-2.3,3.5-2.3,5.9v31.8h-23.2v-31.8c0-2.5-0.8-4.4-2.3-5.9
				c-1.5-1.5-3.5-2.3-6-2.3c-2.2,0-4,0.8-5.6,2.3c-1.5,1.5-2.3,3.5-2.3,5.9v31.8h-23.1v-59.6h23.1v6.9c5.6-5.3,11.6-8,18.1-8
				c8.2,0,14.1,3.5,17.9,10.4C619.1-210.7,626.2-214.2,633.9-214.2z"/>
		</g>
	</g>
	<g>
		<g>
			<g>
				<path class="EGreenBg" d="M90-270h90c16.6,0,30,13.4,30,30v90c0,16.6-13.4,30-30,30H90c-16.6,0-30-13.4-30-30v-90
					C60-256.6,73.4-270,90-270z"/>
			</g>
		</g>
		<g>
			<path class="EGreyBg" d="M172.5-152.1v-96.4h-75v96.4H86.8v10.7h96.4v-10.7H172.5z M151.1-237.9h10.7v10.7h-10.7V-237.9z
				 M151.1-216.4h10.7v10.7h-10.7V-216.4z M151.1-195h10.7v10.7h-10.7V-195z M129.6-237.9h10.7v10.7h-10.7V-237.9z M129.6-216.4
				h10.7v10.7h-10.7V-216.4z M129.6-195h10.7v10.7h-10.7V-195z M108.2-237.9h10.7v10.7h-10.7V-237.9z M108.2-216.4h10.7v10.7h-10.7
				V-216.4z M108.2-195h10.7v10.7h-10.7V-195z M124.3-152.1v-10.7c0-5.9,4.8-10.7,10.7-10.7s10.7,4.8,10.7,10.7v10.7H124.3z"/>
			<rect x="108.2" y="-237.9" class="EGreenBg" width="10.7" height="10.7"/>
			<rect x="129.6" y="-237.9" class="EGreenBg" width="10.7" height="10.7"/>
			<rect x="151.1" y="-237.9" class="EGreenBg" width="10.7" height="10.7"/>
			<rect x="108.2" y="-216.4" class="EGreenBg" width="10.7" height="10.7"/>
			<rect x="129.6" y="-216.4" class="EGreenBg" width="10.7" height="10.7"/>
			<rect x="151.1" y="-216.4" class="EGreenBg" width="10.7" height="10.7"/>
			<rect x="108.2" y="-195" class="EGreenBg" width="10.7" height="10.7"/>
			<rect x="129.6" y="-195" class="EGreenBg" width="10.7" height="10.7"/>
			<rect x="151.1" y="-195" class="EGreenBg" width="10.7" height="10.7"/>
			<path class="EGreenBg" d="M135-173.6c-5.9,0-10.7,4.8-10.7,10.7v10.7h21.4v-10.7C145.7-168.8,140.9-173.6,135-173.6z"/>
		</g>
	</g>
</g>
<g>
	<rect x="-1320" y="90" class="EGreyBg" width="720" height="270"/>
	<g>
		<g>
			<path class="ELightBg" d="M-1050,209.9v8.6h29.7v19.6h-29.7v7.9h34v20.4h-58v-76.9h58v20.4H-1050z"/>
			<path class="ELightBg" d="M-967.4,184.9h23.1v81.5h-23.1v-6.5c-4.4,5.1-10.2,7.7-17.4,7.7c-7.7,0-13.9-2.9-18.5-8.6
				c-4.6-5.7-6.9-13.2-6.9-22.5c0-9.2,2.3-16.6,6.9-22.3c4.6-5.7,10.8-8.5,18.5-8.5c7.2,0,13,2.5,17.4,7.6V184.9z M-977,246.9
				c3.2,0,5.7-0.9,7.5-2.7c1.8-1.8,2.6-4.3,2.6-7.4c0-3.3-0.9-5.8-2.6-7.7c-1.8-1.8-4.2-2.7-7.5-2.7c-3.1,0-5.5,0.9-7.3,2.8
				c-1.8,1.9-2.7,4.4-2.7,7.6c0,3,0.9,5.4,2.7,7.3C-982.5,245.9-980.1,246.9-977,246.9z"/>
			<path class="ELightBg" d="M-910,191.2c0,3.3-1.2,6.1-3.6,8.4c-2.4,2.3-5.3,3.5-8.7,3.5c-3.4,0-6.4-1.2-8.9-3.5
				c-2.5-2.3-3.7-5.1-3.7-8.4c0-3.2,1.2-5.9,3.7-8.2c2.5-2.3,5.4-3.5,8.9-3.5c3.4,0,6.3,1.1,8.7,3.4C-911.2,185.2-910,188-910,191.2
				z M-933.9,266.4v-59.6h23.1v59.6H-933.9z"/>
			<path class="ELightBg" d="M-904.1,236.8c0-8.5,3.3-15.8,9.8-21.9c6.5-6.1,14.3-9.2,23.2-9.2c6.9,0,12.9,1.7,18.2,5.1
				c5.3,3.4,9,8,11.1,13.9l-19.6,7.9c-1.3-2.2-2.6-3.8-4-4.8c-1.4-1-3.3-1.5-5.6-1.5c-2.9,0-5.3,1-7.2,3c-1.9,2-2.9,4.5-2.9,7.5
				c0,3,0.9,5.5,2.8,7.4c1.9,1.9,4.3,2.8,7.3,2.8c2.5,0,4.5-0.5,6-1.4c1.5-0.9,2.8-2.4,3.9-4.5l19.6,7.9c-2.3,6.1-6,10.7-11.1,13.9
				c-5.1,3.2-11.3,4.7-18.5,4.7c-9.3,0-17.2-2.9-23.5-8.7C-900.9,253.1-904.1,245.8-904.1,236.8z"/>
			<path class="ELightBg" d="M-806.6,267.6c-9.3,0-17.1-3-23.5-9.1c-6.3-6.1-9.5-13.4-9.5-21.9c0-8.5,3.2-15.7,9.5-21.8
				c6.3-6.1,14.2-9.1,23.5-9.1c9.2,0,17.1,3,23.4,9.1c6.4,6.1,9.6,13.3,9.6,21.8c0,8.5-3.2,15.8-9.6,21.9
				C-789.5,264.5-797.4,267.6-806.6,267.6z M-799.4,229.1c-1.8-2-4.2-2.9-7.3-2.9c-3.1,0-5.5,1-7.3,2.9c-1.8,2-2.6,4.4-2.6,7.5
				c0,3,0.9,5.5,2.6,7.5c1.8,2,4.2,3,7.3,3c3.1,0,5.5-1,7.3-3c1.8-2,2.6-4.5,2.6-7.5C-796.7,233.6-797.6,231.1-799.4,229.1z"/>
			<path class="ELightBg" d="M-686.1,205.8c6.4,0,11.5,2.3,15.4,6.9c3.9,4.6,5.9,11,5.9,19.2v34.6h-23.2v-31.8c0-2.5-0.8-4.4-2.3-5.9
				c-1.5-1.5-3.5-2.3-6-2.3c-2.2,0-4,0.8-5.6,2.3c-1.5,1.5-2.3,3.5-2.3,5.9v31.8h-23.2v-31.8c0-2.5-0.8-4.4-2.3-5.9
				c-1.5-1.5-3.5-2.3-6-2.3c-2.2,0-4,0.8-5.6,2.3c-1.5,1.5-2.3,3.5-2.3,5.9v31.8h-23.1v-59.6h23.1v6.9c5.6-5.3,11.6-8,18.1-8
				c8.2,0,14.1,3.5,17.9,10.4C-700.9,209.3-693.8,205.8-686.1,205.8z"/>
		</g>
	</g>
	<g>
		<g>
			<g>
				<path class="EGreenBg" d="M-1230,150h90c16.6,0,30,13.4,30,30v90c0,16.6-13.4,30-30,30h-90c-16.6,0-30-13.4-30-30v-90
					C-1260,163.4-1246.6,150-1230,150z"/>
			</g>
		</g>
		<g>
			<path class="EGreyBg" d="M-1147.5,267.9v-96.4h-75v96.4h-10.7v10.7h96.4v-10.7H-1147.5z M-1168.9,182.1h10.7v10.7h-10.7V182.1z
				 M-1168.9,203.6h10.7v10.7h-10.7V203.6z M-1168.9,225h10.7v10.7h-10.7V225z M-1190.4,182.1h10.7v10.7h-10.7V182.1z
				 M-1190.4,203.6h10.7v10.7h-10.7V203.6z M-1190.4,225h10.7v10.7h-10.7V225z M-1211.8,182.1h10.7v10.7h-10.7V182.1z
				 M-1211.8,203.6h10.7v10.7h-10.7V203.6z M-1211.8,225h10.7v10.7h-10.7V225z M-1195.7,267.9v-10.7c0-5.9,4.8-10.7,10.7-10.7
				s10.7,4.8,10.7,10.7v10.7H-1195.7z"/>
			<rect x="-1211.8" y="182.1" class="EGreenBg" width="10.7" height="10.7"/>
			<rect x="-1190.4" y="182.1" class="EGreenBg" width="10.7" height="10.7"/>
			<rect x="-1168.9" y="182.1" class="EGreenBg" width="10.7" height="10.7"/>
			<rect x="-1211.8" y="203.6" class="EGreenBg" width="10.7" height="10.7"/>
			<rect x="-1190.4" y="203.6" class="EGreenBg" width="10.7" height="10.7"/>
			<rect x="-1168.9" y="203.6" class="EGreenBg" width="10.7" height="10.7"/>
			<rect x="-1211.8" y="225" class="EGreenBg" width="10.7" height="10.7"/>
			<rect x="-1190.4" y="225" class="EGreenBg" width="10.7" height="10.7"/>
			<rect x="-1168.9" y="225" class="EGreenBg" width="10.7" height="10.7"/>
			<path class="EGreenBg" d="M-1185,246.4c-5.9,0-10.7,4.8-10.7,10.7v10.7h21.4v-10.7C-1174.3,251.2-1179.1,246.4-1185,246.4z"/>
		</g>
	</g>
</g>
<g>
	<rect class="EGreyBg" width="720" height="270"/>
	<g>
		<g>
			<path class="ELightBg" d="M270,119.9v8.6h29.7v19.6H270v7.9h34v20.4h-58V99.5h58v20.4H270z"/>
			<path class="ELightBg" d="M352.6,94.9h23.1v81.5h-23.1v-6.5c-4.4,5.1-10.2,7.7-17.4,7.7c-7.7,0-13.9-2.9-18.5-8.6
				c-4.6-5.7-6.9-13.2-6.9-22.5c0-9.2,2.3-16.6,6.9-22.3c4.6-5.7,10.8-8.5,18.5-8.5c7.2,0,13,2.5,17.4,7.6V94.9z M343,156.9
				c3.2,0,5.7-0.9,7.5-2.7c1.8-1.8,2.6-4.3,2.6-7.4c0-3.3-0.9-5.8-2.6-7.7c-1.8-1.8-4.2-2.7-7.5-2.7c-3.1,0-5.5,0.9-7.3,2.8
				c-1.8,1.9-2.7,4.4-2.7,7.6c0,3,0.9,5.4,2.7,7.3C337.5,155.9,339.9,156.9,343,156.9z"/>
			<path class="ELightBg" d="M410,101.2c0,3.3-1.2,6.1-3.6,8.4c-2.4,2.3-5.3,3.5-8.7,3.5c-3.4,0-6.4-1.2-8.9-3.5
				c-2.5-2.3-3.7-5.1-3.7-8.4c0-3.2,1.2-5.9,3.7-8.2c2.5-2.3,5.4-3.5,8.9-3.5c3.4,0,6.3,1.1,8.7,3.4C408.8,95.2,410,98,410,101.2z
				 M386.1,176.4v-59.6h23.1v59.6H386.1z"/>
			<path class="ELightBg" d="M415.9,146.8c0-8.5,3.3-15.8,9.8-21.9c6.5-6.1,14.3-9.2,23.2-9.2c6.9,0,12.9,1.7,18.2,5.1
				c5.3,3.4,9,8,11.1,13.9l-19.6,7.9c-1.3-2.2-2.6-3.8-4-4.8c-1.4-1-3.3-1.5-5.6-1.5c-2.9,0-5.3,1-7.2,3c-1.9,2-2.9,4.5-2.9,7.5
				c0,3,0.9,5.5,2.8,7.4c1.9,1.9,4.3,2.8,7.3,2.8c2.5,0,4.5-0.5,6-1.4c1.5-0.9,2.8-2.4,3.9-4.5l19.6,7.9c-2.3,6.1-6,10.7-11.1,13.9
				c-5.1,3.2-11.3,4.7-18.5,4.7c-9.3,0-17.2-2.9-23.5-8.7C419.1,163.1,415.9,155.8,415.9,146.8z"/>
			<path class="ELightBg" d="M513.4,177.6c-9.3,0-17.1-3-23.5-9.1c-6.3-6.1-9.5-13.4-9.5-21.9c0-8.5,3.2-15.7,9.5-21.8
				c6.3-6.1,14.2-9.1,23.5-9.1c9.2,0,17.1,3,23.4,9.1c6.4,6.1,9.6,13.3,9.6,21.8c0,8.5-3.2,15.8-9.6,21.9
				C530.5,174.5,522.6,177.6,513.4,177.6z M520.6,139.1c-1.8-2-4.2-2.9-7.3-2.9c-3.1,0-5.5,1-7.3,2.9c-1.8,2-2.6,4.4-2.6,7.5
				c0,3,0.9,5.5,2.6,7.5c1.8,2,4.2,3,7.3,3c3.1,0,5.5-1,7.3-3c1.8-2,2.6-4.5,2.6-7.5C523.3,143.6,522.4,141.1,520.6,139.1z"/>
			<path class="ELightBg" d="M633.9,115.8c6.4,0,11.5,2.3,15.4,6.9c3.9,4.6,5.9,11,5.9,19.2v34.6h-23.2v-31.8c0-2.5-0.8-4.4-2.3-5.9
				c-1.5-1.5-3.5-2.3-6-2.3c-2.2,0-4,0.8-5.6,2.3c-1.5,1.5-2.3,3.5-2.3,5.9v31.8h-23.2v-31.8c0-2.5-0.8-4.4-2.3-5.9
				c-1.5-1.5-3.5-2.3-6-2.3c-2.2,0-4,0.8-5.6,2.3c-1.5,1.5-2.3,3.5-2.3,5.9v31.8h-23.1v-59.6h23.1v6.9c5.6-5.3,11.6-8,18.1-8
				c8.2,0,14.1,3.5,17.9,10.4C619.1,119.3,626.2,115.8,633.9,115.8z"/>
		</g>
	</g>
	<g>
		<g>
			<g>
				<path class="EGreenBg" d="M90,60h90c16.6,0,30,13.4,30,30v90c0,16.6-13.4,30-30,30H90c-16.6,0-30-13.4-30-30V90
					C60,73.4,73.4,60,90,60z"/>
			</g>
		</g>
		<g>
			<path class="EGreyBg" d="M172.5,177.9V81.4h-75v96.4H86.8v10.7h96.4v-10.7H172.5z M151.1,92.1h10.7v10.7h-10.7V92.1z M151.1,113.6
				h10.7v10.7h-10.7V113.6z M151.1,135h10.7v10.7h-10.7V135z M129.6,92.1h10.7v10.7h-10.7V92.1z M129.6,113.6h10.7v10.7h-10.7V113.6
				z M129.6,135h10.7v10.7h-10.7V135z M108.2,92.1h10.7v10.7h-10.7V92.1z M108.2,113.6h10.7v10.7h-10.7V113.6z M108.2,135h10.7v10.7
				h-10.7V135z M124.3,177.9v-10.7c0-5.9,4.8-10.7,10.7-10.7s10.7,4.8,10.7,10.7v10.7H124.3z"/>
			<rect x="108.2" y="92.1" class="EGreenBg" width="10.7" height="10.7"/>
			<rect x="129.6" y="92.1" class="EGreenBg" width="10.7" height="10.7"/>
			<rect x="151.1" y="92.1" class="EGreenBg" width="10.7" height="10.7"/>
			<rect x="108.2" y="113.6" class="EGreenBg" width="10.7" height="10.7"/>
			<rect x="129.6" y="113.6" class="EGreenBg" width="10.7" height="10.7"/>
			<rect x="151.1" y="113.6" class="EGreenBg" width="10.7" height="10.7"/>
			<rect x="108.2" y="135" class="EGreenBg" width="10.7" height="10.7"/>
			<rect x="129.6" y="135" class="EGreenBg" width="10.7" height="10.7"/>
			<rect x="151.1" y="135" class="EGreenBg" width="10.7" height="10.7"/>
			<path class="EGreenBg" d="M135,156.4c-5.9,0-10.7,4.8-10.7,10.7v10.7h21.4v-10.7C145.7,161.2,140.9,156.4,135,156.4z"/>
		</g>
	</g>
</g>
<g>
	<rect x="-1560" y="-270" class="EGreenBg" width="60" height="60"/>
	<rect x="-1560" y="-210" class="EGreyBg" width="60" height="60"/>
	<rect x="-1560" y="-150" class="ELightBg" width="60" height="60"/>
</g>
</svg>
